<svg width="186" height="211" viewBox="0 0 186 211" fill="none" xmlns="http://www.w3.org/2000/svg">
<g clip-path="url(#clip0_27_3732)">
<path d="M115.754 43.5326H105.4V31.0947H80.6V43.5326H70.246C65.72 43.5326 62 47.264 62 51.8038V147.14C62 151.742 65.72 155.474 70.246 155.474H115.692C120.28 155.474 124 151.742 124 147.202V51.8038C124 47.264 120.28 43.5326 115.754 43.5326Z" fill="#0FA958"/>
<path d="M80.9164 81.9675L83.932 76.9542L86.1041 73.3371C86.9266 71.9622 88.9089 71.9622 89.7313 73.3371L92.8524 78.5407L90.2585 82.8982L88.1497 86.325L80.9164 81.9675ZM114.552 94.2784L111.178 88.6518L103.882 92.8824L108.542 100.688H110.925C112.044 100.688 113.117 100.242 113.908 99.4487C114.699 98.6553 115.143 97.5792 115.143 96.4572C115.143 95.6957 114.932 94.9553 114.552 94.2784ZM102.49 111.264H105.653C106.438 111.264 107.207 111.044 107.874 110.629C108.54 110.214 109.079 109.621 109.428 108.916L112.486 102.803H102.49V98.5725L94.0545 107.034L102.49 115.495V111.264ZM89.8368 102.803H80.7687L78.9973 105.786C78.3647 106.843 78.3225 108.155 78.8708 109.276C79.4613 110.482 80.7055 111.264 82.0762 111.264H89.8368V102.803ZM81.6545 97.1975L85.3028 99.3974L82.4136 87.7845L70.8572 90.6825L74.4422 92.84L73.5776 94.2996C72.8395 95.5476 72.7762 97.0706 73.43 98.3609L76.8674 105.257L81.6545 97.1975ZM104.641 77.7157L101.899 73.1256C101.119 71.8564 99.7483 71.0737 98.2721 71.0737H90.8279L97.4075 82.0732L93.7803 84.252L105.358 87.1499L108.247 75.537L104.641 77.7157Z" fill="white"/>
<path d="M91.8929 4.44214C42.3007 4.44214 2.21436 44.1546 2.21436 93.2842C2.21436 142.414 42.3007 182.126 91.8929 182.126C141.485 182.126 181.572 142.414 181.572 93.2842C181.572 44.1546 141.485 4.44214 91.8929 4.44214ZM91.8929 164.358C52.255 164.358 20.1501 132.552 20.1501 93.2842C20.1501 54.016 52.255 22.2106 91.8929 22.2106C131.531 22.2106 163.636 54.016 163.636 93.2842C163.636 132.552 131.531 164.358 91.8929 164.358Z" fill="#0FA958"/>
</g>
<path d="M52.3865 203.568V194.841H57.8581V195.975H53.7033V198.634H57.5726V199.763H53.7033V202.435H57.9093V203.568H52.3865ZM64.4196 198.621L63.2647 198.825C63.2164 198.678 63.1397 198.537 63.0346 198.404C62.9324 198.27 62.7931 198.161 62.617 198.075C62.4409 197.99 62.2207 197.948 61.9565 197.948C61.5957 197.948 61.2946 198.029 61.0531 198.191C60.8116 198.35 60.6909 198.556 60.6909 198.808C60.6909 199.027 60.7718 199.203 60.9338 199.337C61.0957 199.47 61.3571 199.58 61.7179 199.665L62.7576 199.904C63.3599 200.043 63.8088 200.257 64.1042 200.547C64.3997 200.837 64.5474 201.213 64.5474 201.676C64.5474 202.068 64.4338 202.418 64.2065 202.725C63.9821 203.029 63.6681 203.267 63.2647 203.441C62.8642 203.614 62.3997 203.7 61.8713 203.7C61.1383 203.7 60.5403 203.544 60.0772 203.232C59.6142 202.916 59.3301 202.469 59.225 201.889L60.4565 201.702C60.5332 202.023 60.6909 202.266 60.9295 202.431C61.1681 202.593 61.4792 202.673 61.8627 202.673C62.2804 202.673 62.6142 202.587 62.8642 202.414C63.1142 202.237 63.2392 202.023 63.2392 201.77C63.2392 201.566 63.1625 201.394 63.0091 201.254C62.8585 201.115 62.627 201.01 62.3145 200.939L61.2065 200.696C60.5957 200.557 60.144 200.335 59.8514 200.031C59.5616 199.727 59.4167 199.343 59.4167 198.877C59.4167 198.49 59.5247 198.152 59.7406 197.862C59.9565 197.573 60.2548 197.347 60.6355 197.185C61.0162 197.02 61.4522 196.938 61.9437 196.938C62.6511 196.938 63.2079 197.091 63.6142 197.398C64.0204 197.702 64.2889 198.11 64.4196 198.621ZM69.0037 197.023V198.046H65.4284V197.023H69.0037ZM66.3873 195.455H67.6614V201.646C67.6614 201.894 67.6983 202.08 67.7722 202.205C67.8461 202.327 67.9412 202.411 68.0577 202.456C68.177 202.499 68.3063 202.52 68.4455 202.52C68.5478 202.52 68.6373 202.513 68.714 202.499C68.7907 202.485 68.8503 202.473 68.8929 202.465L69.123 203.517C69.0492 203.546 68.9441 203.574 68.8077 203.602C68.6713 203.634 68.5009 203.651 68.2963 203.654C67.9611 203.659 67.6486 203.6 67.3588 203.475C67.0691 203.35 66.8347 203.156 66.6557 202.895C66.4767 202.634 66.3873 202.306 66.3873 201.911V195.455ZM72.318 203.713C71.9032 203.713 71.5282 203.637 71.193 203.483C70.8578 203.327 70.5922 203.101 70.3961 202.806C70.2029 202.51 70.1064 202.148 70.1064 201.719C70.1064 201.35 70.1774 201.046 70.3194 200.807C70.4615 200.568 70.6532 200.379 70.8947 200.24C71.1362 200.101 71.4061 199.996 71.7044 199.925C72.0027 199.854 72.3066 199.8 72.6163 199.763C73.0083 199.718 73.3265 199.681 73.5708 199.652C73.8152 199.621 73.9927 199.571 74.1035 199.503C74.2143 199.435 74.2697 199.324 74.2697 199.171V199.141C74.2697 198.769 74.1646 198.48 73.9544 198.276C73.747 198.071 73.4373 197.969 73.0254 197.969C72.5964 197.969 72.2583 198.064 72.0112 198.254C71.7669 198.442 71.5978 198.651 71.5041 198.881L70.3066 198.608C70.4487 198.21 70.6561 197.889 70.9288 197.645C71.2044 197.398 71.5211 197.219 71.8791 197.108C72.237 196.994 72.6135 196.938 73.0083 196.938C73.2697 196.938 73.5467 196.969 73.8393 197.031C74.1348 197.091 74.4103 197.202 74.666 197.364C74.9245 197.526 75.1362 197.757 75.301 198.058C75.4657 198.357 75.5481 198.744 75.5481 199.222V203.568H74.3038V202.673H74.2527C74.1703 202.838 74.0467 203 73.8819 203.159C73.7172 203.318 73.5055 203.45 73.247 203.556C72.9885 203.661 72.6788 203.713 72.318 203.713ZM72.595 202.691C72.9473 202.691 73.2484 202.621 73.4984 202.482C73.7512 202.343 73.943 202.161 74.0737 201.936C74.2072 201.709 74.274 201.466 74.274 201.208V200.364C74.2285 200.409 74.1404 200.452 74.0098 200.492C73.8819 200.529 73.7356 200.561 73.5708 200.59C73.4061 200.615 73.2456 200.639 73.0893 200.662C72.9331 200.682 72.8024 200.699 72.6973 200.713C72.4501 200.744 72.2243 200.797 72.0197 200.871C71.818 200.945 71.6561 201.051 71.5339 201.191C71.4146 201.327 71.3549 201.509 71.3549 201.736C71.3549 202.051 71.4714 202.29 71.7044 202.452C71.9373 202.611 72.2342 202.691 72.595 202.691ZM80.0023 203.7C79.3688 203.7 78.8233 203.557 78.3659 203.27C77.9114 202.98 77.562 202.581 77.3176 202.073C77.0733 201.564 76.9512 200.982 76.9512 200.325C76.9512 199.661 77.0762 199.074 77.3262 198.566C77.5762 198.054 77.9284 197.655 78.383 197.368C78.8375 197.081 79.373 196.938 79.9895 196.938C80.4867 196.938 80.9299 197.03 81.3191 197.215C81.7083 197.396 82.0222 197.652 82.2608 197.982C82.5023 198.311 82.6458 198.696 82.6912 199.137H81.4512C81.383 198.83 81.2267 198.566 80.9824 198.344C80.7409 198.122 80.4171 198.012 80.0108 198.012C79.6557 198.012 79.3446 198.105 79.0776 198.293C78.8134 198.477 78.6074 198.742 78.4597 199.085C78.312 199.426 78.2381 199.83 78.2381 200.296C78.2381 200.773 78.3105 201.185 78.4554 201.531C78.6003 201.878 78.8049 202.146 79.0691 202.337C79.3361 202.527 79.65 202.622 80.0108 202.622C80.2523 202.622 80.4711 202.578 80.6671 202.49C80.8659 202.399 81.0321 202.27 81.1657 202.102C81.302 201.935 81.3972 201.733 81.4512 201.497H82.6912C82.6458 201.921 82.508 202.298 82.2779 202.631C82.0478 202.963 81.7395 203.225 81.3532 203.415C80.9696 203.605 80.5194 203.7 80.0023 203.7ZM79.5421 203.534H80.3773L80.3091 203.884C80.5563 203.923 80.7722 204.023 80.9569 204.182C81.1415 204.341 81.2338 204.581 81.2338 204.902C81.2367 205.286 81.0705 205.597 80.7353 205.835C80.4029 206.074 79.9213 206.193 79.2907 206.193L79.2651 205.482C79.5605 205.482 79.7992 205.439 79.981 205.354C80.1657 205.269 80.2594 205.131 80.2623 204.941C80.2651 204.75 80.1941 204.617 80.0492 204.54C79.9071 204.463 79.6799 204.409 79.3674 204.378L79.5421 203.534ZM85.9586 203.713C85.5439 203.713 85.1689 203.637 84.8336 203.483C84.4984 203.327 84.2328 203.101 84.0368 202.806C83.8436 202.51 83.747 202.148 83.747 201.719C83.747 201.35 83.818 201.046 83.96 200.807C84.1021 200.568 84.2939 200.379 84.5353 200.24C84.7768 200.101 85.0467 199.996 85.345 199.925C85.6433 199.854 85.9473 199.8 86.2569 199.763C86.649 199.718 86.9672 199.681 87.2115 199.652C87.4558 199.621 87.6333 199.571 87.7441 199.503C87.8549 199.435 87.9103 199.324 87.9103 199.171V199.141C87.9103 198.769 87.8052 198.48 87.595 198.276C87.3876 198.071 87.0779 197.969 86.666 197.969C86.237 197.969 85.899 198.064 85.6518 198.254C85.4075 198.442 85.2385 198.651 85.1447 198.881L83.9473 198.608C84.0893 198.21 84.2967 197.889 84.5694 197.645C84.845 197.398 85.1618 197.219 85.5197 197.108C85.8777 196.994 86.2541 196.938 86.649 196.938C86.9103 196.938 87.1873 196.969 87.4799 197.031C87.7754 197.091 88.051 197.202 88.3066 197.364C88.5652 197.526 88.7768 197.757 88.9416 198.058C89.1064 198.357 89.1887 198.744 89.1887 199.222V203.568H87.9444V202.673H87.8933C87.8109 202.838 87.6873 203 87.5225 203.159C87.3578 203.318 87.1461 203.45 86.8876 203.556C86.6291 203.661 86.3194 203.713 85.9586 203.713ZM86.2356 202.691C86.5879 202.691 86.889 202.621 87.139 202.482C87.3919 202.343 87.5836 202.161 87.7143 201.936C87.8478 201.709 87.9146 201.466 87.9146 201.208V200.364C87.8691 200.409 87.7811 200.452 87.6504 200.492C87.5225 200.529 87.3762 200.561 87.2115 200.59C87.0467 200.615 86.8862 200.639 86.7299 200.662C86.5737 200.682 86.443 200.699 86.3379 200.713C86.0907 200.744 85.8649 200.797 85.6603 200.871C85.4586 200.945 85.2967 201.051 85.1745 201.191C85.0552 201.327 84.9956 201.509 84.9956 201.736C84.9956 202.051 85.112 202.29 85.345 202.452C85.5779 202.611 85.8748 202.691 86.2356 202.691ZM85.4345 196.23L84.5779 196.205C84.5779 195.733 84.7044 195.357 84.9572 195.075C85.2129 194.794 85.5282 194.654 85.9032 194.654C86.0765 194.654 86.2285 194.683 86.3592 194.743C86.4899 194.8 86.612 194.867 86.7257 194.943C86.8422 195.017 86.9572 195.084 87.0708 195.144C87.1873 195.2 87.3166 195.229 87.4586 195.229C87.6234 195.229 87.7569 195.166 87.8592 195.041C87.9643 194.916 88.0169 194.762 88.0169 194.577L88.8564 194.632C88.8564 195.107 88.7285 195.48 88.4728 195.753C88.2172 196.023 87.9032 196.159 87.5311 196.162C87.3294 196.162 87.1618 196.134 87.0282 196.077C86.8975 196.017 86.7811 195.95 86.6788 195.877C86.5765 195.8 86.4714 195.732 86.3635 195.672C86.2555 195.612 86.1262 195.583 85.9757 195.583C85.8166 195.583 85.6859 195.645 85.5836 195.77C85.4842 195.892 85.4345 196.046 85.4345 196.23ZM93.6429 203.7C93.0293 203.7 92.4938 203.56 92.0364 203.279C91.579 202.997 91.2239 202.604 90.9711 202.098C90.7182 201.593 90.5918 201.002 90.5918 200.325C90.5918 199.646 90.7182 199.053 90.9711 198.544C91.2239 198.036 91.579 197.641 92.0364 197.36C92.4938 197.078 93.0293 196.938 93.6429 196.938C94.2566 196.938 94.7921 197.078 95.2495 197.36C95.7069 197.641 96.062 198.036 96.3148 198.544C96.5676 199.053 96.6941 199.646 96.6941 200.325C96.6941 201.002 96.5676 201.593 96.3148 202.098C96.062 202.604 95.7069 202.997 95.2495 203.279C94.7921 203.56 94.2566 203.7 93.6429 203.7ZM93.6472 202.631C94.0449 202.631 94.3745 202.526 94.6358 202.316C94.8972 202.105 95.0904 201.825 95.2154 201.476C95.3432 201.127 95.4071 200.742 95.4071 200.321C95.4071 199.904 95.3432 199.52 95.2154 199.171C95.0904 198.818 94.8972 198.536 94.6358 198.323C94.3745 198.11 94.0449 198.003 93.6472 198.003C93.2466 198.003 92.9142 198.11 92.65 198.323C92.3887 198.536 92.1941 198.818 92.0662 199.171C91.9412 199.52 91.8787 199.904 91.8787 200.321C91.8787 200.742 91.9412 201.127 92.0662 201.476C92.1941 201.825 92.3887 202.105 92.65 202.316C92.9142 202.526 93.2466 202.631 93.6472 202.631ZM101.394 203.568V194.841H104.505C105.184 194.841 105.747 194.965 106.193 195.212C106.639 195.459 106.972 195.797 107.194 196.226C107.416 196.652 107.526 197.132 107.526 197.666C107.526 198.203 107.414 198.686 107.19 199.115C106.968 199.541 106.633 199.879 106.184 200.129C105.738 200.377 105.177 200.5 104.501 200.5H102.362V199.384H104.382C104.811 199.384 105.159 199.31 105.426 199.162C105.693 199.012 105.889 198.807 106.014 198.548C106.139 198.29 106.201 197.996 106.201 197.666C106.201 197.337 106.139 197.044 106.014 196.789C105.889 196.533 105.691 196.333 105.421 196.188C105.154 196.043 104.802 195.97 104.365 195.97H102.711V203.568H101.394ZM108.968 203.568V197.023H110.242V203.568H108.968ZM109.611 196.013C109.39 196.013 109.199 195.939 109.04 195.791C108.884 195.641 108.806 195.462 108.806 195.254C108.806 195.044 108.884 194.865 109.04 194.718C109.199 194.567 109.39 194.492 109.611 194.492C109.833 194.492 110.022 194.567 110.178 194.718C110.337 194.865 110.417 195.044 110.417 195.254C110.417 195.462 110.337 195.641 110.178 195.791C110.022 195.939 109.833 196.013 109.611 196.013ZM113.23 194.841V203.568H111.956V194.841H113.23ZM116.219 199.682V203.568H114.944V194.841H116.202V198.088H116.282C116.436 197.736 116.67 197.456 116.986 197.249C117.301 197.041 117.713 196.938 118.221 196.938C118.67 196.938 119.062 197.03 119.398 197.215C119.736 197.399 119.997 197.675 120.182 198.041C120.369 198.405 120.463 198.86 120.463 199.405V203.568H119.189V199.558C119.189 199.078 119.065 198.706 118.818 198.442C118.571 198.175 118.227 198.041 117.787 198.041C117.486 198.041 117.216 198.105 116.977 198.233C116.741 198.361 116.555 198.548 116.419 198.796C116.285 199.04 116.219 199.335 116.219 199.682ZM124.068 203.713C123.653 203.713 123.278 203.637 122.943 203.483C122.608 203.327 122.342 203.101 122.146 202.806C121.953 202.51 121.856 202.148 121.856 201.719C121.856 201.35 121.927 201.046 122.069 200.807C122.211 200.568 122.403 200.379 122.645 200.24C122.886 200.101 123.156 199.996 123.454 199.925C123.753 199.854 124.057 199.8 124.366 199.763C124.758 199.718 125.077 199.681 125.321 199.652C125.565 199.621 125.743 199.571 125.854 199.503C125.964 199.435 126.02 199.324 126.02 199.171V199.141C126.02 198.769 125.915 198.48 125.704 198.276C125.497 198.071 125.187 197.969 124.775 197.969C124.346 197.969 124.008 198.064 123.761 198.254C123.517 198.442 123.348 198.651 123.254 198.881L122.057 198.608C122.199 198.21 122.406 197.889 122.679 197.645C122.954 197.398 123.271 197.219 123.629 197.108C123.987 196.994 124.363 196.938 124.758 196.938C125.02 196.938 125.297 196.969 125.589 197.031C125.885 197.091 126.16 197.202 126.416 197.364C126.675 197.526 126.886 197.757 127.051 198.058C127.216 198.357 127.298 198.744 127.298 199.222V203.568H126.054V202.673H126.003C125.92 202.838 125.797 203 125.632 203.159C125.467 203.318 125.256 203.45 124.997 203.556C124.738 203.661 124.429 203.713 124.068 203.713ZM124.345 202.691C124.697 202.691 124.998 202.621 125.248 202.482C125.501 202.343 125.693 202.161 125.824 201.936C125.957 201.709 126.024 201.466 126.024 201.208V200.364C125.979 200.409 125.89 200.452 125.76 200.492C125.632 200.529 125.486 200.561 125.321 200.59C125.156 200.615 124.996 200.639 124.839 200.662C124.683 200.682 124.552 200.699 124.447 200.713C124.2 200.744 123.974 200.797 123.77 200.871C123.568 200.945 123.406 201.051 123.284 201.191C123.165 201.327 123.105 201.509 123.105 201.736C123.105 202.051 123.221 202.29 123.454 202.452C123.687 202.611 123.984 202.691 124.345 202.691ZM133.9 198.621L132.745 198.825C132.697 198.678 132.62 198.537 132.515 198.404C132.413 198.27 132.274 198.161 132.097 198.075C131.921 197.99 131.701 197.948 131.437 197.948C131.076 197.948 130.775 198.029 130.534 198.191C130.292 198.35 130.171 198.556 130.171 198.808C130.171 199.027 130.252 199.203 130.414 199.337C130.576 199.47 130.838 199.58 131.198 199.665L132.238 199.904C132.84 200.043 133.289 200.257 133.585 200.547C133.88 200.837 134.028 201.213 134.028 201.676C134.028 202.068 133.914 202.418 133.687 202.725C133.463 203.029 133.149 203.267 132.745 203.441C132.345 203.614 131.88 203.7 131.352 203.7C130.619 203.7 130.021 203.544 129.558 203.232C129.095 202.916 128.811 202.469 128.705 201.889L129.937 201.702C130.014 202.023 130.171 202.266 130.41 202.431C130.649 202.593 130.96 202.673 131.343 202.673C131.761 202.673 132.095 202.587 132.345 202.414C132.595 202.237 132.72 202.023 132.72 201.77C132.72 201.566 132.643 201.394 132.49 201.254C132.339 201.115 132.107 201.01 131.795 200.939L130.687 200.696C130.076 200.557 129.624 200.335 129.332 200.031C129.042 199.727 128.897 199.343 128.897 198.877C128.897 198.49 129.005 198.152 129.221 197.862C129.437 197.573 129.735 197.347 130.116 197.185C130.497 197.02 130.933 196.938 131.424 196.938C132.132 196.938 132.688 197.091 133.095 197.398C133.501 197.702 133.769 198.11 133.9 198.621Z" fill="#038C3E"/>
<defs>
<clipPath id="clip0_27_3732">
<rect width="186" height="186.568" fill="white"/>
</clipPath>
</defs>
</svg>
